Coordinates
version=1
nRows=22
nColumns=24
inDegrees=yes

Units are S.I. units (second, meters, Newtons, ...)
Angles are in degrees.

endheader
time	pelvis_tilt	pelvis_list	pelvis_rotation	pelvis_tx	pelvis_ty	pelvis_tz	hip_flexion_r	hip_adduction_r	hip_rotation_r	knee_angle_r	ankle_angle_r	subtalar_angle_r	mtp_angle_r	hip_flexion_l	hip_adduction_l	hip_rotation_l	knee_angle_l	ankle_angle_l	subtalar_angle_l	mtp_angle_l	lumbar_extension	lumbar_bending	lumbar_rotation
      1.17983333	      3.94106049	      8.44956678	     -3.73752895	      0.15481113	      1.02374882	      0.25167153	     11.88811645	     -9.68916360	     -0.24506663	    -65.68284764	      4.86751903	    -19.22800189	     -3.28275568	      4.76565864	     11.93007030	      0.03603492	    -11.66862959	      0.64893114	    -16.50646017	      5.94617452	     -7.35120143	    -10.31947150	      6.53332356
      1.18400000	      3.92349181	      8.33329977	     -3.68570811	      0.15986094	      1.02447972	      0.25142799	     12.38646849	     -9.46839361	     -0.20172269	    -65.21363224	      5.07199932	    -19.15758403	     -3.38019745	      4.29531743	     11.86083746	      0.27673053	    -11.37329274	      0.72828022	    -16.64650884	      5.86526730	     -7.37437338	    -10.21408577	      6.21187214
      1.18816667	      3.89775313	      8.20520547	     -3.63847123	      0.16492022	      1.02516179	      0.25121263	     12.87727818	     -9.22828115	     -0.15000764	    -64.68120428	      5.28730427	    -19.07192999	     -3.45876182	      3.84279915	     11.76739770	      0.44802728	    -11.09676003	      0.82483053	    -16.70571093	      5.78498263	     -7.38469129	    -10.08320698	      6.01385909
      1.19233333	      3.86620455	      8.07500587	     -3.60270020	      0.16999321	      1.02582530	      0.25103173	     13.36090508	     -8.97857476	     -0.08435188	    -64.08397688	      5.48303628	    -19.00727955	     -3.47364139	      3.39619615	     11.66189916	      0.55454464	    -10.81524573	      0.92521430	    -16.68181750	      5.76370790	     -7.38299575	     -9.93298849	      5.91139507
      1.19650000	      3.87024801	      7.95227130	     -3.52466524	      0.17502979	      1.02649748	      0.25080273	     13.77705371	     -8.75362887	     -0.06726376	    -63.42252922	      5.66935787	    -18.85973691	     -3.51860805	      2.90023679	     11.57668991	      0.79374813	    -10.51773332	      1.00999945	    -16.78186886	      5.68767888	     -7.44605647	     -9.82353120	      5.56732299
      1.20066667	      3.81602965	      7.82774429	     -3.46725640	      0.18010485	      1.02705588	      0.25063697	     14.24788465	     -8.50850842	     -0.01429163	    -62.70897982	      5.84605334	    -18.75514851	     -3.53092070	      2.47744345	     11.47148582	      0.91669320	    -10.23584203	      1.08617102	    -16.77905014	      5.65534197	     -7.41950252	     -9.69642543	      5.43235366
      1.20483333	      3.80752180	      7.71361867	     -3.38269460	      0.18517116	      1.02764860	      0.25042199	     14.64416328	     -8.29667358	     -0.00706376	    -61.93566826	      5.99224011	    -18.62803000	     -3.55542957	      1.98258617	     11.38864658	      1.14819327	     -9.91218221	      1.17276307	    -16.86934056	      5.57726829	     -7.45676918	     -9.58237562	      5.09311428
      1.20900000	      3.78854210	      7.59740854	     -3.30459802	      0.19024112	      1.02818098	      0.25023857	     15.03755212	     -8.07705865	      0.01148307	    -61.11083890	      6.13120148	    -18.50749372	     -3.56904056	      1.50700262	     11.29475911	      1.32246356	     -9.60124753	      1.25316127	    -16.90763307	      5.50645651	     -7.47548394	     -9.46399045	      4.86089509
      1.21316667	      3.72840958	      7.48346266	     -3.22793017	      0.19531538	      1.02861012	      0.25008446	     15.46365395	     -7.85147783	      0.04465801	    -60.24141208	      6.26692481	    -18.39460364	     -3.57091760	      1.08608484	     11.19321746	      1.44897444	     -9.30728860	      1.32410819	    -16.89178155	      5.47166624	     -7.44695457	     -9.34695857	      4.70186345
      1.21733333	      3.69418866	      7.36907223	     -3.13487418	      0.20038718	      1.02904779	      0.24991015	     15.83720159	     -7.63795377	      0.04946573	    -59.31470348	      6.37248161	    -18.28482849	     -3.57100293	      0.62949249	     11.09330219	      1.61091668	     -9.00083680	      1.40990871	    -16.89827388	      5.43459299	     -7.45172788	     -9.22964961	      4.47256009
      1.22150000	      3.68486444	      7.28901099	     -3.03672705	      0.20545352	      1.02945711	      0.24973197	     16.17638041	     -7.47469385	      0.04091335	    -58.35916814	      6.44907756	    -18.20549725	     -3.56944370	      0.12657703	     11.03544388	      1.84018773	     -8.65001776	      1.49094954	    -16.98875000	      5.35622274	     -7.48815056	     -9.15872617	      4.07385993
      1.22566667	      3.65119860	      7.19050120	     -2.93746491	      0.21052844	      1.02980232	      0.24957174	     16.51952477	     -7.28664620	      0.03701797	    -57.34703251	      6.51721494	    -18.12813640	     -3.56376373	     -0.33701683	     10.94856935	      2.01620506	     -8.32699599	      1.56587434	    -17.02321711	      5.28089687	     -7.49300174	     -9.05886456	      3.81671580
      1.22983333	      3.61925137	      7.10401345	     -2.83855405	      0.21559017	      1.03009775	      0.24942489	     16.84899233	     -7.11501547	      0.03284552	    -56.29801343	      6.57180211	    -18.05751231	     -3.55549186	     -0.80052678	     10.87156711	      2.18593143	     -8.00275072	      1.64288845	    -17.04865924	      5.20610493	     -7.50076956	     -8.97556725	      3.54904401
      1.23400000	      3.57570251	      7.01196784	     -2.73399540	      0.22066740	      1.03034784	      0.24927934	     17.16952855	     -6.94062417	      0.02214167	    -55.20081556	      6.59931521	    -18.00794846	     -3.54570155	     -1.25202466	     10.78518187	      2.35198134	     -7.68006136	      1.72237343	    -17.06526195	      5.13215810	     -7.49630809	     -8.88487491	      3.28120494
      1.23816667	      3.54013734	      6.92925719	     -2.62816237	      0.22573732	      1.03055401	      0.24913055	     17.46827244	     -6.78492734	      0.00314788	    -54.06830072	      6.61359154	    -17.96097092	     -3.53502469	     -1.70890856	     10.70692866	      2.50926316	     -7.36083106	      1.81076854	    -17.07509272	      5.06516254	     -7.49787229	     -8.80373794	      3.01938450
      1.24233333	      3.45691084	      6.84934876	     -2.52511504	      0.23081636	      1.03064727	      0.24900572	     17.80601222	     -6.62787935	     -0.00336893	    -52.90224602	      6.63153454	    -17.88783347	     -3.52897594	     -2.10136900	     10.62453077	      2.62416086	     -7.06494124	      1.88501177	    -17.04350519	      5.03275572	     -7.44098606	     -8.72050279	      2.85038963
      1.24650000	      3.43969869	      6.78033933	     -2.41541075	      0.23587500	      1.03078727	      0.24887741	     18.05439535	     -6.49614761	     -0.03069127	    -51.69751333	      6.58571917	    -17.91083666	     -3.51804164	     -2.58314850	     10.55794982	      2.80918094	     -6.73355593	      1.98969536	    -17.07545373	      4.96775539	     -7.47064343	     -8.65994444	      2.49020792
      1.25066667	      3.37166072	      6.71021316	     -2.30600236	      0.24094746	      1.03081372	      0.24875041	     18.34186897	     -6.36343274	     -0.05161536	    -50.45657068	      6.54942736	    -17.88743134	     -3.50499341	     -2.99544688	     10.48513973	      2.96108596	     -6.43076054	      2.08022184	    -17.08505461	      4.90472385	     -7.43100648	     -8.59234583	      2.22499911
      1.25483333	      3.32450875	      6.64135520	     -2.20039096	      0.24601078	      1.03083053	      0.24863676	     18.59194649	     -6.23887488	     -0.07970958	    -49.18171039	      6.49675061	    -17.87298421	     -3.49185853	     -3.43044602	     10.41096122	      3.09941076	     -6.12410761	      2.17551427	    -17.08058805	      4.84714673	     -7.42774882	     -8.52279797	      1.97182909
      1.25900000	      3.23689799	      6.57598960	     -2.09898980	      0.25109263	      1.03074054	      0.24852783	     18.87173654	     -6.11946671	     -0.10127628	    -47.87679293	      6.46208527	    -17.80060184	     -3.48499989	     -3.80769016	     10.33676344	      3.20155188	     -5.84533526	      2.26209524	    -17.04246327	      4.81995278	     -7.36260165	     -8.44973063	      1.81373092
      1.26316667	      3.18447856	      6.52376530	     -1.99371296	      0.25613994	      1.03065731	      0.24843347	     19.09813722	     -6.01842639	     -0.12640670	    -46.53867367	      6.35335707	    -17.84621439	     -3.46892060	     -4.23049774	     10.27770444	      3.36257437	     -5.54941392	      2.37736992	    -17.05645426	      4.76095954	     -7.35558022	     -8.40817651	      1.46940205
      1.26733333	      3.11974229	      6.47129394	     -1.89291575	      0.26120486	      1.03052630	      0.24833568	     19.31951851	     -5.92368420	     -0.15594479	    -45.16514818	      6.26677313	    -17.82023605	     -3.44929222	     -4.63161032	     10.21669944	      3.49616423	     -5.27004123	      2.48063509	    -17.05142148	      4.70289586	     -7.31893309	     -8.35544795	      1.22103285
